<?xml version="1.0" standalone="no"?>
<!DOCTYPE svg PUBLIC "-//W3C//DTD SVG 20010904//EN"
 "http://www.w3.org/TR/2001/REC-SVG-20010904/DTD/svg10.dtd">
<svg version="1.0" xmlns="http://www.w3.org/2000/svg"
 width="2000.000000pt" height="2000.000000pt" viewBox="0 0 2000.000000 2000.000000"
 preserveAspectRatio="xMidYMid meet">
<metadata>
Created by potrace 1.16, written by Peter Selinger 2001-2019
</metadata>
<g transform="translate(0.000000,2000.000000) scale(0.100000,-0.100000)"
fill="#000000" stroke="none">
<path d="M10913 16275 c-65 -18 -173 -72 -276 -138 l-78 -50 -107 37 c-275 93
-595 118 -922 70 -105 -15 -278 -54 -346 -78 -36 -12 -39 -11 -103 32 -137 92
-271 142 -347 128 -51 -10 -108 -68 -125 -126 -16 -56 -16 -221 0 -322 l12
-77 -42 -62 c-126 -186 -199 -435 -199 -682 l0 -98 -116 2 c-111 3 -117 2
-135 -20 -25 -31 -24 -63 4 -89 19 -18 39 -22 145 -28 68 -4 124 -10 126 -13
3 -3 7 -22 11 -42 l7 -35 -73 -14 c-80 -15 -109 -36 -109 -76 0 -65 37 -81
132 -59 35 8 70 15 79 15 10 0 30 -28 53 -76 21 -41 61 -111 90 -154 l53 -79
-57 -21 -57 -21 -134 31 c-273 63 -534 143 -791 243 -195 77 -306 95 -381 63
-48 -20 -94 -78 -113 -143 -23 -80 -14 -287 20 -440 32 -145 119 -404 191
-568 31 -71 59 -137 61 -145 3 -8 -25 -55 -61 -104 -170 -230 -289 -516 -359
-865 -14 -68 -27 -125 -30 -128 -2 -3 -80 2 -173 11 -92 9 -181 16 -196 16
-57 0 -89 -78 -49 -118 15 -15 42 -20 133 -26 125 -8 260 -23 267 -31 2 -2 1
-37 -2 -78 l-7 -74 -182 -2 c-206 -1 -227 -7 -227 -64 0 -18 6 -42 14 -53 14
-18 26 -19 204 -16 l189 4 7 -108 c8 -123 36 -278 67 -372 12 -35 19 -65 17
-68 -9 -8 -132 78 -191 134 -33 31 -104 111 -157 178 -105 129 -141 164 -201
194 -47 25 -132 26 -185 4 -140 -58 -297 -259 -399 -514 -43 -108 -100 -293
-111 -361 -4 -25 -14 -41 -34 -52 -63 -38 -222 -168 -319 -262 -172 -167 -311
-371 -398 -584 l-38 -93 -105 -53 c-58 -29 -144 -78 -192 -108 l-87 -55 -24
41 c-74 127 -120 286 -120 417 1 161 34 273 184 625 54 127 106 262 115 300
44 190 -32 357 -201 441 -69 34 -78 36 -152 32 -107 -5 -158 -31 -258 -132
-128 -131 -224 -318 -285 -560 -41 -162 -53 -261 -53 -431 0 -409 149 -767
413 -994 l66 -57 -33 -50 c-83 -122 -167 -339 -205 -527 -30 -148 -33 -462 -5
-599 26 -128 61 -244 106 -348 21 -50 36 -90 33 -88 -122 64 -277 133 -343
152 -181 52 -350 52 -455 1 -135 -66 -159 -179 -107 -510 22 -140 27 -207 28
-382 l1 -212 -38 -93 c-81 -194 -140 -424 -189 -745 -54 -356 -76 -429 -180
-614 l-50 -88 -42 15 c-158 56 -335 84 -527 84 -130 0 -141 -1 -160 -22 -25
-27 -26 -59 -3 -87 17 -19 30 -21 173 -26 163 -4 312 -27 428 -66 35 -12 60
-25 55 -29 -4 -4 -78 -13 -163 -19 -227 -17 -487 -68 -522 -103 -18 -18 -24
-64 -10 -84 21 -32 50 -35 131 -14 116 29 291 58 408 66 l102 7 -10 -39 c-21
-92 2 -311 41 -384 9 -16 1 -21 -73 -45 -283 -93 -483 -249 -588 -457 -58
-114 -60 -193 -8 -252 56 -65 124 -68 409 -21 192 32 409 52 661 61 l207 7 60
-37 c99 -60 300 -152 422 -194 223 -76 446 -118 690 -129 77 -3 140 -8 140
-10 0 -2 -12 -22 -27 -44 -39 -59 -44 -137 -11 -187 57 -85 189 -125 413 -126
179 0 257 13 590 96 499 123 523 127 1010 139 209 5 407 13 440 18 33 6 61 8
63 7 2 -2 -14 -30 -34 -62 -81 -126 -135 -296 -120 -375 16 -84 85 -138 176
-139 57 0 186 31 270 65 35 15 159 76 275 135 209 108 381 177 547 220 l87 23
108 -41 c374 -140 756 -206 1347 -233 254 -12 779 -6 1056 11 448 29 836 96
1129 195 122 41 133 41 269 15 260 -49 450 -110 682 -219 159 -75 221 -97 308
-107 179 -20 267 103 217 301 -19 74 -82 205 -128 266 l-35 45 122 -33 c322
-88 659 -139 1063 -159 l142 -7 83 -101 c288 -352 564 -517 728 -433 61 31 83
71 82 155 0 85 -37 198 -114 352 -31 63 -56 116 -54 117 1 2 56 12 122 23 369
63 688 194 1027 422 l88 59 142 -25 c342 -61 552 -61 687 0 190 87 179 238
-27 377 -68 45 -217 122 -322 165 l-53 22 6 57 c14 123 18 588 7 693 -18 165
-50 341 -96 525 -24 94 -42 171 -41 172 1 1 22 -3 46 -8 25 -6 79 -9 121 -7
226 10 343 209 299 509 -60 418 -368 780 -875 1030 -224 110 -522 198 -763
224 l-63 7 5 32 c23 149 12 421 -23 591 -40 191 -128 396 -235 550 l-56 80 22
15 c146 99 253 215 309 335 50 107 69 206 69 357 0 266 -77 561 -220 844 -151
300 -345 490 -534 525 -153 28 -325 -51 -386 -177 -33 -67 -25 -181 20 -287
38 -91 141 -248 258 -395 154 -193 224 -318 262 -466 37 -146 22 -249 -54
-366 -64 -97 -63 -97 -137 -54 -107 63 -248 125 -399 175 -80 26 -148 53 -152
61 -4 7 -23 67 -43 133 -39 128 -107 314 -148 406 l-25 57 39 127 c102 330
130 628 82 864 -31 155 -79 236 -157 266 -69 26 -130 4 -257 -93 -221 -169
-354 -252 -548 -338 l-99 -45 -114 35 c-196 59 -311 78 -524 83 l-192 6 49 60
c116 144 198 396 216 658 l6 99 151 0 c83 0 207 -5 276 -10 114 -8 127 -8 150
9 29 21 37 67 17 95 -19 26 -87 33 -368 42 l-226 7 -9 99 c-8 84 -7 99 6 103
25 7 246 43 375 60 133 18 155 30 155 80 0 55 -27 69 -117 62 -70 -6 -338 -46
-419 -62 l-31 -7 -22 113 c-83 417 -249 826 -419 1036 l-34 42 55 128 c64 150
109 286 131 398 70 355 34 645 -92 739 -36 27 -118 32 -180 12 -28 -9 -120
-59 -206 -110 -174 -105 -283 -154 -436 -197 -119 -33 -320 -69 -385 -69 -78
0 -81 6 -32 64 49 57 143 196 152 226 8 25 24 25 153 0 56 -11 107 -20 113
-20 18 0 59 49 59 70 0 43 -40 66 -146 85 -54 9 -102 19 -105 21 -4 2 -2 21 4
43 13 47 13 47 165 57 79 5 108 11 127 26 32 25 33 70 3 99 -21 19 -30 20 -98
15 l-75 -6 80 33 c111 45 181 95 272 191 171 182 257 400 257 651 -1 222 -65
365 -192 426 -111 54 -273 16 -332 -77 -38 -60 -44 -113 -30 -264 10 -100 10
-144 0 -200 -14 -85 -68 -197 -137 -284 l-46 -59 -32 80 c-17 43 -50 110 -72
149 l-40 69 28 115 c75 304 60 462 -51 518 -50 25 -83 27 -157 7z m118 -137
c21 -39 5 -228 -31 -363 -48 -177 -49 -194 -10 -229 38 -33 110 -179 140 -286
25 -84 41 -343 23 -361 -6 -6 -53 -14 -105 -19 -114 -11 -126 -15 -134 -46
-14 -57 18 -73 126 -64 41 4 78 5 82 3 13 -6 -15 -73 -31 -73 -9 0 -50 6 -91
14 -90 18 -120 7 -120 -45 0 -25 6 -33 33 -44 19 -8 57 -17 85 -21 30 -4 52
-12 52 -18 0 -35 -168 -264 -210 -286 -10 -5 -50 2 -113 20 -126 38 -299 74
-462 96 -183 26 -664 26 -850 0 -179 -24 -357 -60 -504 -102 -68 -19 -129 -33
-135 -31 -30 12 -193 287 -181 306 2 5 34 14 69 21 74 14 102 36 92 74 -10 42
-35 48 -121 30 -43 -9 -81 -12 -85 -7 -4 4 -11 21 -14 37 l-7 29 106 -6 c96
-5 108 -4 126 14 24 24 24 51 1 72 -13 12 -49 19 -133 24 l-114 8 -9 55 c-11
70 6 249 34 361 12 46 46 135 76 197 53 111 54 112 89 112 25 0 39 6 50 23 13
21 13 33 -5 122 -29 145 -37 310 -17 358 14 32 20 37 50 37 48 0 170 -64 296
-155 58 -41 115 -75 128 -75 26 0 58 42 49 65 -7 20 18 30 154 60 175 39 282
48 508 42 154 -4 231 -10 300 -25 122 -27 248 -69 293 -99 41 -27 53 -25 119
22 202 145 371 209 401 153z m705 -34 c121 -57 151 -339 64 -599 -49 -148
-188 -320 -321 -398 -61 -35 -194 -86 -202 -76 -3 2 -7 37 -10 77 l-6 73 61
67 c107 117 180 246 214 376 14 51 15 92 10 243 -5 124 -4 189 4 202 25 49
120 66 186 35z m271 -1701 c-127 -165 -335 -326 -586 -455 -46 -24 -88 -50
-94 -59 -15 -23 0 -68 26 -78 12 -5 85 -4 165 1 79 6 146 8 149 4 3 -3 -19
-33 -50 -65 -95 -99 -77 -135 70 -144 51 -3 97 -8 102 -12 6 -3 4 -16 -4 -31
-20 -39 -8 -62 58 -113 239 -183 351 -327 460 -596 80 -195 180 -539 202 -697
7 -44 6 -47 -16 -52 -165 -37 -345 -84 -484 -126 -256 -77 -281 -92 -257 -146
17 -36 49 -32 255 31 202 62 514 141 523 133 3 -3 9 -47 15 -99 7 -72 6 -94
-3 -101 -7 -4 -44 -8 -83 -8 -184 -1 -620 -52 -647 -77 -25 -23 -23 -59 5 -78
21 -13 35 -13 128 -1 130 19 407 44 519 48 l85 3 -3 -85 c-3 -101 -25 -238
-53 -335 -83 -280 -232 -425 -529 -514 -139 -43 -154 -51 -158 -84 -7 -57 17
-64 138 -42 l36 7 36 -79 c56 -119 67 -150 93 -248 44 -170 41 -323 -6 -423
-39 -81 -74 -77 -176 21 -83 79 -195 215 -359 437 -72 96 -144 187 -162 202
-53 44 -94 53 -247 52 -236 -2 -468 -61 -785 -198 l-165 -71 -335 1 c-375 1
-501 8 -980 60 -88 10 -93 2 -144 -216 -43 -184 -94 -445 -160 -820 -58 -324
-113 -478 -200 -558 -77 -71 -144 -67 -216 15 -93 106 -159 354 -191 722 -11
131 -6 725 7 848 l6 52 42 -5 c51 -7 79 14 74 54 -4 33 -15 38 -198 96 -376
120 -631 310 -760 566 -62 122 -106 315 -112 490 l-3 85 70 -3 c167 -8 442
-47 689 -98 132 -27 176 -30 194 -12 16 16 15 50 -1 72 -26 36 -683 146 -877
146 -31 0 -60 4 -66 10 -9 9 -4 153 6 164 8 8 259 -40 420 -80 162 -41 366
-104 452 -140 66 -28 110 -31 132 -8 39 38 7 88 -70 112 -398 123 -576 169
-775 203 -74 12 -137 25 -141 28 -13 11 50 295 97 437 100 304 236 524 476
771 53 54 89 100 89 112 0 11 -12 31 -26 44 l-26 25 43 25 c24 14 76 35 116
47 86 26 111 48 97 88 -8 22 -22 31 -83 51 -53 17 -70 26 -59 32 33 18 168 31
280 27 129 -6 158 3 158 46 0 34 -20 53 -77 75 -74 29 -266 126 -342 174 -101
63 -246 171 -353 265 -54 46 -98 86 -98 89 0 12 82 -12 223 -66 234 -90 547
-187 732 -228 39 -9 40 -10 40 -53 0 -38 3 -46 25 -53 20 -7 52 2 165 50 297
127 550 196 875 240 169 23 660 26 810 5 283 -40 490 -94 709 -184 173 -71
208 -76 230 -33 9 17 16 31 16 32 0 1 58 13 128 27 234 48 397 112 607 239 68
42 126 74 128 72 2 -2 -16 -30 -41 -62z m220 -1 c25 -81 25 -330 -1 -467 -21
-115 -88 -327 -137 -433 l-34 -72 -67 54 -68 54 25 16 c17 11 25 26 25 46 0
49 -43 76 -174 112 l-49 13 62 35 c34 19 73 43 87 53 35 27 31 77 -9 108 -1 1
-58 5 -126 8 l-123 6 98 67 c174 118 342 284 432 425 14 23 30 39 34 37 4 -3
16 -31 25 -62z m-4905 -107 c138 -130 313 -262 480 -361 l87 -51 -104 -26
c-195 -48 -262 -96 -218 -156 11 -13 37 -30 58 -38 59 -20 61 -28 9 -58 -118
-69 -153 -131 -98 -174 l26 -20 -33 -41 c-42 -52 -40 -54 -118 144 -129 326
-181 537 -181 732 0 91 4 114 18 114 2 0 36 -29 74 -65z m-851 -2803 c30 -31
92 -104 138 -160 125 -153 234 -237 425 -328 71 -34 97 -52 121 -85 108 -149
361 -319 625 -419 l95 -36 0 -55 c-1 -30 -7 -157 -14 -284 -31 -567 42 -1092
185 -1331 45 -75 68 -99 124 -132 37 -22 57 -27 110 -27 100 1 177 48 244 149
79 119 128 291 196 686 44 254 94 503 137 685 25 110 28 115 52 115 14 -1 103
-9 196 -18 l170 -18 8 -69 c27 -250 132 -543 267 -749 28 -43 49 -86 47 -95
-65 -214 -122 -427 -146 -545 -17 -82 -32 -150 -34 -152 -2 -2 -37 8 -78 23
-139 49 -284 31 -459 -57 -41 -21 -85 -48 -97 -59 -30 -29 -30 -66 2 -87 23
-15 29 -14 87 5 35 12 98 28 142 36 79 15 279 20 350 8 l38 -6 -6 -61 c-3 -34
-9 -108 -12 -166 l-7 -105 -111 -31 c-100 -29 -210 -73 -336 -136 -35 -18 -46
-29 -48 -51 -7 -61 36 -72 127 -33 111 47 344 126 373 126 6 0 10 -16 23 -92
l6 -37 -108 -54 c-110 -55 -261 -149 -275 -170 -15 -23 -8 -57 16 -72 27 -18
41 -14 111 30 51 33 261 135 276 135 4 0 13 -19 19 -42 14 -50 99 -223 143
-288 17 -25 56 -74 87 -110 31 -36 59 -70 63 -76 10 -17 -10 -210 -28 -271
-14 -48 -22 -57 -88 -104 -80 -57 -157 -95 -262 -129 -82 -26 -94 -35 -111
-75 -10 -26 -9 -45 6 -121 60 -292 64 -608 10 -731 -28 -63 -50 -58 -132 27
-116 121 -204 328 -249 588 -10 63 -19 124 -19 136 0 12 -14 35 -30 51 -31 29
-31 29 -133 25 -56 -3 -273 -5 -482 -4 -408 0 -573 12 -870 60 -422 69 -960
240 -1430 455 -82 38 -159 69 -170 69 -32 0 -55 -31 -128 -172 -117 -227 -254
-416 -404 -559 -135 -129 -245 -193 -319 -187 -36 3 -41 7 -64 53 -23 46 -25
60 -24 185 1 192 42 384 135 620 65 168 67 176 41 202 -18 18 -26 20 -49 12
-21 -7 -34 -26 -59 -84 -18 -41 -37 -76 -43 -78 -15 -5 -143 58 -220 108 -235
152 -409 443 -478 795 -27 140 -24 398 6 540 45 216 134 425 240 566 100 132
269 271 454 374 37 20 70 35 73 32 3 -2 -4 -35 -14 -73 -11 -38 -32 -143 -48
-232 l-28 -164 -30 7 c-66 14 -195 33 -267 40 -70 7 -79 5 -98 -14 -12 -12
-21 -29 -21 -39 0 -37 35 -54 132 -63 105 -11 257 -35 265 -43 3 -3 2 -61 -2
-130 l-7 -125 -235 -3 c-233 -3 -235 -3 -254 -27 -24 -29 -24 -33 0 -62 18
-23 20 -23 252 -24 l234 0 6 -195 c9 -266 32 -422 90 -591 31 -91 100 -223
158 -299 64 -85 213 -227 246 -236 30 -7 65 18 65 48 0 12 -39 58 -94 111
-153 151 -218 252 -274 427 -54 169 -82 373 -82 597 l0 126 73 -7 c39 -4 137
-19 217 -33 229 -40 225 -40 245 -10 21 33 12 65 -23 78 -44 17 -198 46 -357
69 -82 11 -151 22 -153 24 -2 2 0 54 4 116 l7 112 30 -6 c59 -12 264 -99 406
-173 123 -63 148 -73 168 -64 12 6 26 23 29 38 6 22 2 31 -27 55 -50 42 -358
192 -479 232 l-105 36 2 57 c3 87 59 330 113 495 50 153 143 351 212 453 105
154 256 307 442 446 106 80 142 96 256 109 116 14 138 22 146 55 8 32 18 32
90 -5 63 -32 102 -38 122 -18 17 17 15 87 -3 138 -8 24 -14 45 -12 47 8 8 147
-42 219 -78 88 -44 94 -45 120 -22 29 26 21 57 -36 145 -96 148 -142 256 -181
423 -31 134 -36 165 -26 165 4 0 32 -26 62 -58z m-115 -256 c15 -45 42 -114
61 -155 18 -40 33 -74 33 -75 0 -2 -32 6 -71 16 -39 10 -99 21 -134 24 -55 6
-65 4 -84 -15 -27 -27 -27 -45 4 -98 14 -23 24 -43 21 -43 -3 0 -31 7 -63 15
-122 32 -177 15 -171 -54 3 -34 1 -36 -29 -39 -18 -2 -33 0 -33 3 0 22 66 229
99 309 58 142 126 250 215 340 l78 81 24 -114 c13 -63 36 -151 50 -195z
m-1892 80 c47 -20 114 -82 139 -130 27 -54 27 -149 -1 -231 -12 -34 -57 -143
-102 -244 -228 -514 -244 -750 -75 -1087 l61 -123 -67 -67 -67 -67 -29 21
c-16 11 -64 58 -108 104 -128 133 -212 296 -271 523 -27 103 -29 122 -29 305
1 217 12 294 70 490 75 250 207 449 336 504 43 19 100 20 143 2z m10465 -640
c-81 -172 -55 -359 66 -494 100 -111 193 -145 384 -140 l124 3 14 -40 c61
-176 98 -406 90 -560 -10 -185 -49 -284 -156 -398 -64 -68 -193 -167 -215
-167 -6 1 -39 27 -73 58 l-63 57 60 80 c59 79 59 79 127 95 90 22 140 49 190
102 88 96 90 228 6 351 -38 55 -112 105 -226 152 l-102 42 -55 80 c-30 44 -94
129 -141 189 -119 151 -175 235 -223 334 -50 104 -56 184 -18 237 33 47 113
83 183 83 l58 0 -30 -64z m-3611 -205 c12 -6 93 -107 180 -224 375 -503 508
-606 639 -492 l38 33 96 -92 c268 -255 568 -399 999 -481 261 -49 614 -21 875
70 55 20 104 36 110 38 30 7 125 -511 125 -687 l0 -58 -27 6 c-16 4 -138 9
-273 12 -271 6 -292 2 -298 -49 -6 -53 -2 -54 281 -60 144 -3 275 -9 290 -13
29 -7 29 -7 22 -68 -10 -93 -25 -181 -35 -196 -7 -11 -26 -7 -102 22 -105 41
-260 87 -392 118 -81 19 -91 19 -112 5 -27 -18 -33 -65 -10 -84 8 -7 59 -21
113 -32 90 -19 399 -116 444 -139 26 -14 24 -29 -10 -104 -146 -323 -533 -577
-1036 -681 -71 -15 -137 -31 -146 -36 -35 -18 -28 -82 11 -94 30 -10 253 40
410 91 153 50 338 138 455 216 97 65 252 211 311 294 24 34 65 105 90 158 l45
96 37 -19 c20 -11 84 -49 142 -85 58 -36 111 -66 118 -66 16 0 16 -3 -12 -58
-55 -110 -78 -208 -84 -359 l-4 -142 -105 -63 c-129 -77 -318 -219 -438 -328
-49 -45 -105 -89 -123 -98 -37 -18 -39 -24 -46 -147 -9 -156 -57 -300 -125
-378 -74 -84 -203 -116 -273 -68 -77 53 -142 179 -193 374 -14 55 -31 97 -42
105 -21 16 -49 14 -358 -17 -372 -39 -629 -53 -1051 -58 -528 -7 -814 7 -1374
68 -113 13 -214 20 -223 16 -10 -4 -25 -24 -33 -44 -28 -68 -127 -206 -200
-280 -130 -133 -225 -148 -312 -48 -63 71 -58 150 23 360 71 186 103 298 112
393 3 40 9 71 12 70 3 -2 58 -29 121 -60 126 -63 245 -98 411 -123 193 -28
269 -18 269 34 0 44 -22 54 -141 63 -222 17 -407 69 -554 155 -99 57 -254 211
-308 303 -41 71 -96 206 -104 256 -5 31 -3 32 53 54 33 12 88 29 124 37 143
33 170 52 156 109 -12 48 -82 42 -269 -27 -48 -17 -90 -29 -94 -25 -11 10 -16
113 -6 119 5 3 70 11 144 17 150 13 179 24 179 70 0 44 -37 64 -103 57 -74 -9
-188 -26 -216 -33 l-24 -5 6 153 c11 267 79 605 187 922 16 50 30 95 30 101 0
5 -29 55 -65 109 -81 125 -144 253 -184 378 -32 102 -81 326 -81 373 l0 27 78
-8 c42 -4 235 -8 427 -7 l350 0 65 33 c222 113 483 194 745 234 57 8 240 0
263 -13z m3214 -1307 c384 -132 655 -340 815 -627 65 -116 68 -107 -48 -144
-55 -18 -136 -54 -181 -80 -104 -62 -234 -184 -299 -281 -28 -42 -53 -79 -55
-81 -2 -3 -14 5 -27 16 -19 19 -183 120 -265 164 l-30 17 14 67 c8 37 18 103
23 147 5 43 11 81 13 84 8 7 173 -45 274 -87 139 -57 169 -66 187 -51 45 38
19 83 -72 124 -79 36 -266 100 -338 118 l-53 12 0 57 c0 118 -48 471 -76 564
-7 23 -1 22 118 -19z m-10757 -1479 c169 -50 440 -195 364 -195 -15 0 -192
-79 -199 -88 -3 -4 -38 -27 -77 -50 -163 -96 -300 -219 -397 -355 l-41 -59 -8
84 c-4 45 -19 166 -33 268 -54 394 -36 435 186 426 85 -3 138 -11 205 -31z
m634 -338 c89 -84 173 -142 291 -199 47 -23 87 -43 89 -44 2 -2 -11 -54 -28
-116 -61 -219 -77 -516 -37 -646 34 -106 115 -162 214 -147 120 18 238 97 421
284 157 160 270 316 371 511 31 61 56 99 63 96 211 -93 418 -179 472 -197 39
-12 124 -42 190 -64 366 -128 759 -222 1060 -256 61 -7 112 -14 114 -15 2 -2
-25 -34 -59 -71 -160 -174 -256 -359 -296 -570 -29 -155 -6 -273 60 -315 54
-34 125 -20 272 51 l125 61 -31 -53 c-148 -250 -271 -558 -317 -798 l-17 -91
-41 6 c-22 4 -143 9 -270 12 -259 6 -278 3 -283 -53 -6 -56 11 -60 298 -66
140 -3 262 -8 271 -12 13 -5 16 -21 15 -85 l-1 -79 -50 -6 c-197 -25 -401 -68
-427 -92 -36 -32 -12 -93 35 -93 12 0 85 13 162 29 77 16 175 32 218 36 l77 7
0 -28 c0 -55 48 -242 89 -345 22 -57 63 -141 90 -186 l49 -82 -77 -58 c-42
-31 -115 -95 -163 -141 l-88 -84 -123 -19 c-162 -23 -245 -28 -652 -39 -394
-11 -428 -16 -821 -114 -348 -87 -456 -107 -609 -113 -189 -7 -345 29 -345 82
0 57 134 182 306 285 181 107 413 199 661 261 70 17 136 38 146 47 20 17 23
62 5 80 -19 19 -74 14 -198 -18 -290 -74 -562 -189 -760 -323 l-75 -51 -170 2
c-294 4 -508 37 -754 118 -409 134 -748 384 -945 697 -80 128 -117 238 -123
363 -8 142 22 230 137 419 61 100 128 237 154 319 28 83 45 170 80 406 31 206
58 334 97 475 150 530 420 860 836 1021 55 21 195 70 212 73 2 1 38 -32 80
-72z m11432 29 c227 -43 393 -101 628 -221 372 -190 621 -462 723 -787 19 -60
23 -96 23 -203 0 -119 -2 -134 -25 -180 -45 -89 -124 -118 -253 -90 -143 30
-185 61 -482 360 -148 149 -304 297 -346 329 -158 118 -354 206 -559 251 -47
10 -148 18 -272 22 l-196 6 -26 -26 c-30 -30 -32 -45 -12 -73 13 -17 28 -19
193 -20 262 -2 399 -32 598 -130 113 -56 279 -172 370 -261 28 -26 124 -126
215 -222 91 -96 194 -196 229 -222 60 -44 65 -50 87 -120 71 -221 133 -523
155 -754 13 -138 7 -458 -12 -643 -11 -105 -10 -125 2 -137 8 -8 75 -41 150
-73 227 -98 384 -205 377 -256 -5 -31 -82 -65 -178 -77 -123 -15 -344 4 -566
51 -131 27 -142 26 -184 -14 -100 -98 -476 -297 -697 -369 -139 -46 -340 -90
-465 -103 -53 -5 -75 -3 -102 10 -54 25 -84 4 -76 -54 1 -8 33 -69 71 -135
113 -198 181 -376 165 -438 -6 -25 -10 -27 -55 -27 -126 0 -347 172 -551 430
-115 146 -120 150 -150 150 -16 0 -32 -5 -36 -11 -14 -24 -460 9 -719 52 -230
38 -610 136 -788 203 -74 28 -207 103 -207 117 0 5 17 44 39 87 74 147 120
333 137 546 l7 89 176 -6 c97 -4 225 -13 284 -21 122 -17 153 -11 163 30 11
44 -20 64 -126 79 -90 14 -445 37 -485 32 -17 -2 -21 6 -27 58 -3 33 -3 63 0
67 13 13 226 38 422 49 212 13 230 19 230 70 0 48 -24 53 -210 45 -91 -3 -232
-15 -315 -26 -82 -10 -150 -18 -150 -17 -1 1 -16 61 -34 132 -47 186 -107 341
-219 568 -54 108 -95 197 -93 197 2 0 34 -12 70 -26 176 -71 271 -15 279 165
6 133 -34 276 -121 425 -43 75 -171 216 -239 262 l-41 29 29 7 c16 3 135 16
264 28 129 12 244 24 256 26 19 5 23 -3 43 -83 29 -116 107 -277 163 -334 97
-101 221 -122 351 -62 78 37 159 113 199 188 39 74 78 217 85 316 l6 87 111
101 c316 286 617 464 919 542 213 55 547 61 798 15z m-6251 -743 c-55 -169
-42 -275 45 -371 20 -23 61 -53 91 -68 49 -24 63 -26 129 -21 55 4 88 13 127
34 75 40 192 163 273 288 l70 107 75 -6 c41 -3 161 -15 265 -27 515 -56 702
-63 1274 -49 531 13 474 20 608 -72 210 -145 344 -369 347 -580 1 -114 -6
-123 -85 -103 -31 8 -101 35 -155 59 -171 75 -341 122 -511 141 -54 6 -64 4
-82 -14 -26 -26 -26 -42 -3 -70 13 -16 40 -24 122 -36 115 -17 273 -57 295
-75 33 -27 173 -287 248 -460 88 -202 177 -469 177 -530 0 -11 -24 -21 -87
-34 -120 -26 -393 -104 -408 -116 -25 -20 -25 -51 0 -76 20 -20 28 -22 57 -13
120 34 296 81 370 97 l88 20 6 -33 c3 -17 4 -45 2 -60 l-3 -29 -135 -17 c-161
-20 -304 -45 -343 -61 -50 -20 -44 -98 8 -98 13 0 88 11 167 25 162 28 307 44
313 35 5 -9 -12 -201 -25 -272 -40 -217 -155 -440 -293 -564 -62 -56 -194
-146 -297 -202 -115 -63 -274 -127 -479 -191 -369 -117 -733 -164 -1368 -180
-842 -21 -1403 34 -1863 181 -527 168 -891 459 -1040 832 -33 81 -75 234 -85
307 l-7 46 43 7 c46 7 191 2 391 -16 142 -12 158 -7 158 43 0 19 -8 34 -22 43
-31 20 -217 36 -415 36 l-163 0 0 75 c0 71 1 75 23 75 36 0 256 -38 409 -70
164 -35 162 -35 182 -14 23 23 20 61 -6 78 -29 18 -258 68 -448 97 -80 12
-146 23 -148 25 -7 5 28 171 52 250 57 190 180 455 302 652 37 59 72 113 79
120 15 17 104 37 222 51 113 14 122 17 129 47 17 68 -24 82 -175 61 -171 -24
-275 -58 -456 -146 -89 -43 -178 -81 -198 -85 -34 -6 -38 -5 -48 21 -34 86 44
363 144 514 52 79 155 197 215 247 l51 43 288 -2 c414 -5 457 -4 567 1 l99 4
19 -109 c57 -340 221 -654 388 -740 46 -24 113 -22 150 5 113 81 142 425 69
830 -10 57 -15 107 -11 110 4 3 32 14 62 24 30 10 84 32 120 50 36 18 66 31
68 30 2 -1 -11 -46 -28 -101z m-6725 -2395 c39 -60 105 -138 188 -222 70 -72
127 -131 127 -132 0 0 -80 -4 -177 -7 -197 -7 -359 -24 -596 -62 -87 -15 -180
-25 -205 -23 l-47 3 2 38 c5 78 112 227 224 311 101 76 333 183 404 185 15 1
36 -24 80 -91z m4884 -686 c91 -91 202 -176 315 -245 44 -26 81 -49 83 -51 3
-2 -46 -21 -107 -41 -68 -23 -218 -91 -388 -176 -304 -153 -407 -192 -493
-187 -54 3 -54 3 -57 37 -11 115 106 327 282 510 39 40 87 84 106 97 19 13 67
49 105 79 39 30 71 55 72 55 2 0 38 -35 82 -78z m5121 9 c36 -22 90 -54 120
-71 70 -41 215 -188 259 -263 69 -117 104 -270 69 -305 -17 -17 -94 -15 -159
4 -30 9 -119 46 -199 84 -165 77 -420 169 -558 201 l-93 21 83 47 c149 84 292
193 363 277 20 24 39 44 43 44 4 0 36 -18 72 -39z"/>
<path d="M9180 15288 c-52 -15 -86 -43 -109 -91 -26 -53 -26 -99 -2 -152 22
-48 44 -69 96 -90 48 -21 110 -13 157 18 39 26 78 98 78 144 0 39 -23 99 -48
126 -38 42 -113 62 -172 45z"/>
<path d="M10428 15259 c-85 -20 -249 -123 -275 -173 -10 -19 -10 -31 -2 -50
17 -37 39 -40 116 -17 136 41 274 45 391 11 45 -12 80 2 88 36 10 37 -28 69
-100 84 -54 11 -55 11 -35 31 23 23 24 38 3 67 -13 19 -24 22 -82 21 -37 -1
-84 -5 -104 -10z"/>
<path d="M9755 15075 c-5 -2 -22 -6 -38 -9 -74 -17 -88 -83 -30 -147 32 -35
35 -44 27 -67 -18 -50 -94 -62 -103 -16 -9 48 -63 70 -95 38 -20 -20 -20 -43
0 -93 18 -46 48 -69 112 -85 44 -10 47 -14 70 -71 31 -77 55 -109 92 -125 62
-26 122 31 151 142 12 44 15 47 55 53 54 8 91 37 115 89 24 53 24 79 -1 101
-31 28 -69 13 -87 -35 -25 -63 -58 -63 -118 -1 l-29 31 24 17 c119 84 71 182
-90 181 -25 0 -49 -1 -55 -3z"/>
<path d="M10865 12553 c-129 -46 -199 -151 -197 -290 2 -169 81 -277 239 -327
94 -31 203 4 282 89 63 68 75 104 75 215 0 84 -3 101 -27 147 -15 29 -41 68
-58 87 -69 80 -212 115 -314 79z"/>
<path d="M8716 12534 c-76 -27 -129 -76 -174 -159 -24 -45 -27 -60 -26 -150 0
-88 3 -106 26 -151 52 -100 150 -163 254 -164 172 0 285 95 314 264 22 124 -9
226 -92 301 -78 70 -205 95 -302 59z"/>
<path d="M9840 12104 c-204 -21 -299 -100 -245 -203 19 -38 78 -88 160 -136
75 -43 75 -44 29 -141 -44 -93 -104 -134 -196 -134 -100 0 -143 49 -155 177
-5 53 -10 67 -30 80 -34 23 -70 5 -78 -39 -8 -42 9 -147 31 -194 44 -92 134
-139 253 -132 l68 3 12 -60 c51 -246 216 -333 331 -174 28 40 80 179 80 218 0
15 10 17 78 18 46 0 91 6 113 15 93 40 147 127 156 253 5 65 3 75 -16 94 -25
25 -40 26 -66 7 -14 -10 -21 -31 -25 -82 -12 -129 -55 -178 -160 -178 -82 -1
-144 40 -188 124 -46 89 -42 105 43 154 85 50 160 122 169 163 20 90 -80 153
-264 166 -36 2 -81 3 -100 1z m213 -133 c15 -6 27 -15 27 -20 0 -13 -148 -110
-179 -118 -27 -7 -72 15 -154 75 -55 40 -53 48 20 68 55 16 241 13 286 -5z
m-99 -499 l39 -43 -11 -62 c-6 -34 -24 -87 -40 -117 -22 -44 -33 -55 -52 -55
-19 0 -30 11 -52 55 -16 30 -34 83 -40 117 l-11 62 31 35 c17 20 39 51 48 68
l17 33 16 -25 c9 -14 34 -44 55 -68z"/>
<path d="M6610 9085 c-155 -33 -245 -88 -221 -133 21 -39 32 -42 131 -30 114
13 228 0 307 -37 59 -26 164 -121 220 -197 27 -38 41 -48 63 -48 33 0 60 23
60 50 0 11 -10 48 -23 83 -93 256 -282 366 -537 312z"/>
<path d="M7850 8265 c-90 -40 -94 -113 -11 -209 l41 -48 -21 -30 c-30 -42 -78
-61 -128 -49 -52 11 -99 39 -124 73 -19 26 -19 27 -1 77 17 49 17 51 -1 71
-59 65 -144 -54 -115 -160 13 -48 72 -109 134 -139 103 -51 204 -45 274 15
l41 35 15 -29 c38 -73 120 -114 226 -115 143 0 219 58 236 180 5 44 3 54 -15
72 -11 11 -29 21 -39 21 -26 0 -52 -32 -52 -63 0 -38 -19 -73 -45 -85 -41 -19
-91 -24 -131 -13 -53 14 -70 29 -89 73 l-15 37 60 27 c152 68 160 182 18 244
-69 30 -206 38 -258 15z"/>
<path d="M10620 8884 c-94 -34 -175 -118 -200 -209 -19 -68 -8 -162 26 -225
33 -61 70 -95 142 -128 45 -20 65 -23 130 -20 93 5 139 25 203 88 145 145 105
392 -78 481 -60 29 -163 35 -223 13z"/>
<path d="M12788 8881 c-73 -24 -112 -49 -169 -108 -59 -61 -99 -122 -99 -149
0 -25 29 -54 54 -54 10 0 51 21 92 46 159 99 278 130 455 121 125 -6 142 0
137 53 -3 32 -7 37 -62 58 -134 53 -302 67 -408 33z"/>
<path d="M11600 8460 c-70 -24 -100 -58 -100 -112 0 -36 6 -47 45 -84 25 -23
59 -47 75 -54 34 -14 38 -35 14 -69 -33 -47 -122 -65 -187 -37 -53 22 -67 42
-67 96 0 54 -18 80 -55 80 -33 0 -55 -36 -55 -92 0 -85 30 -132 112 -174 107
-55 240 -39 316 37 l41 42 26 -31 c14 -17 46 -40 71 -52 38 -19 57 -22 119
-18 171 11 280 120 246 246 -16 61 -41 87 -75 78 -38 -9 -48 -37 -34 -90 11
-41 10 -47 -8 -67 -29 -33 -93 -59 -148 -59 -44 0 -53 4 -88 40 -21 23 -38 45
-38 50 0 4 18 22 39 40 81 64 102 134 55 189 -49 59 -196 79 -304 41z"/>
<path d="M3474 5911 c-62 -28 -120 -86 -149 -146 -32 -68 -43 -184 -25 -249
16 -57 72 -123 124 -147 114 -52 254 18 324 160 23 49 27 68 27 146 0 77 -4
98 -26 140 -36 72 -92 108 -172 112 -46 3 -73 -1 -103 -16z"/>
<path d="M5177 5583 c-62 -21 -141 -92 -173 -154 -34 -68 -49 -180 -34 -252
23 -114 123 -207 220 -207 166 0 317 196 297 386 -6 60 -38 138 -70 172 -56
61 -158 84 -240 55z"/>
<path d="M4035 5335 c-107 -38 -100 -134 20 -263 l55 -59 -26 -39 c-58 -87
-98 -114 -166 -114 -56 0 -105 30 -124 77 -13 30 -13 47 -3 106 11 68 11 72
-10 88 -18 15 -27 16 -47 7 -30 -14 -44 -61 -44 -148 1 -118 59 -196 170 -227
l60 -16 0 -82 c0 -287 184 -336 311 -82 17 34 32 63 34 65 1 1 21 -5 45 -13
120 -42 215 5 276 138 48 106 40 178 -19 164 -20 -6 -31 -21 -53 -79 -34 -90
-69 -128 -118 -128 -99 0 -159 67 -172 193 l-7 65 34 7 c62 13 174 71 202 104
33 39 36 91 8 130 -62 87 -308 148 -426 106z m226 -115 c64 -19 109 -44 109
-59 0 -10 -79 -45 -139 -61 l-44 -12 -46 46 c-26 25 -55 60 -64 76 l-18 30 69
0 c41 0 96 -8 133 -20z m-100 -448 c24 -54 24 -56 -5 -118 -26 -56 -81 -124
-101 -124 -24 0 -40 62 -38 149 1 81 2 86 30 105 15 11 39 32 53 46 24 24 25
24 33 5 5 -11 17 -39 28 -63z"/>
<path d="M5871 4421 c-26 -26 -26 -42 -3 -70 13 -16 52 -29 157 -52 222 -49
441 -125 645 -223 84 -41 110 -44 133 -18 23 26 21 55 -5 80 -30 27 -263 130
-414 182 -124 43 -362 105 -444 116 -40 5 -51 3 -69 -15z"/>
<path d="M5862 4278 c-20 -20 -14 -65 11 -83 12 -9 78 -47 147 -84 169 -91
306 -177 456 -288 75 -56 136 -93 150 -93 34 0 60 43 46 75 -27 58 -357 283
-625 425 -113 59 -161 72 -185 48z"/>
<path d="M16034 6092 c-6 -4 -24 -29 -39 -57 -16 -27 -30 -52 -32 -54 -1 -2
-27 13 -57 34 -61 42 -100 43 -115 3 -13 -36 -2 -54 60 -98 32 -23 59 -43 59
-45 0 -3 -19 -43 -42 -89 -37 -75 -40 -88 -30 -110 8 -19 19 -26 40 -26 35 0
51 17 91 98 17 34 33 62 36 62 2 0 30 -18 61 -40 64 -45 92 -49 119 -20 34 37
8 70 -118 152 -7 4 1 32 22 78 31 67 32 72 17 95 -16 24 -50 32 -72 17z"/>
<path d="M11260 5257 c-219 -62 -291 -335 -138 -529 16 -21 55 -50 90 -67 53
-27 72 -31 140 -31 95 0 152 23 204 84 73 84 99 174 82 282 -29 185 -209 309
-378 261z"/>
<path d="M9100 5235 c-75 -24 -141 -82 -179 -157 -31 -62 -34 -74 -32 -150 1
-68 6 -92 30 -143 35 -72 90 -131 145 -156 62 -28 186 -26 252 5 112 52 166
140 172 281 4 104 -16 173 -68 237 -65 79 -214 118 -320 83z"/>
<path d="M10130 4787 c-114 -27 -170 -71 -170 -134 0 -67 46 -119 177 -197
l62 -37 -14 -40 c-49 -137 -113 -194 -220 -194 -75 0 -109 20 -136 78 -10 23
-19 65 -19 92 0 59 -21 95 -55 95 -46 0 -58 -26 -52 -111 12 -175 101 -262
271 -263 l78 -1 18 -72 c33 -127 82 -201 154 -228 37 -14 51 -15 80 -5 67 22
129 119 162 251 l16 64 81 0 c65 0 91 5 124 22 80 43 122 120 138 248 7 62
-10 99 -46 103 -39 5 -55 -19 -63 -93 -13 -123 -60 -175 -160 -175 -64 0 -139
39 -170 89 -24 38 -62 139 -55 145 2 1 30 17 62 35 80 45 154 106 172 141 37
71 3 134 -93 171 -71 27 -257 36 -342 16z m282 -118 c20 -5 40 -14 43 -19 3
-5 -20 -27 -52 -48 -78 -53 -117 -72 -147 -72 -26 0 -176 95 -176 111 0 38
218 56 332 28z m-76 -509 l33 -35 -14 -67 c-16 -77 -52 -156 -78 -172 -26 -16
-62 31 -87 113 -29 92 -26 125 14 174 18 23 39 53 46 66 l12 23 20 -33 c11
-19 35 -50 54 -69z"/>
</g>
</svg>
